<?xml version="1.0"?>
<svg width="323" height="100" xmlns="http://www.w3.org/2000/svg" xmlns:svg="http://www.w3.org/2000/svg">
 <defs>
  <clipPath id="clip0_1_46">
   <rect fill="white" height="100" id="svg_1" width="323"/>
  </clipPath>
 </defs>
 <g class="layer">
  <title>Layer 1</title>
  <g clip-path="url(#clip0_1_46)" id="svg_2">
   <path d="m216.88,23.84c1.33,0 2.48,0.45 3.44,1.36c1.01,0.85 1.52,1.95 1.52,3.28c0,0.69 -0.16,1.41 -0.48,2.16l-19.76,46.24c-0.48,1.07 -1.17,1.87 -2.08,2.4c-0.85,0.48 -1.73,0.72 -2.64,0.72c-0.85,-0.05 -1.68,-0.32 -2.48,-0.8c-0.8,-0.53 -1.41,-1.28 -1.84,-2.24l-19.76,-46.4c-0.16,-0.32 -0.27,-0.64 -0.32,-0.96c-0.05,-0.37 -0.08,-0.72 -0.08,-1.04c0,-1.55 0.56,-2.72 1.68,-3.52c1.12,-0.85 2.19,-1.28 3.2,-1.28c2.03,0 3.49,1.04 4.4,3.12l17.52,41.2l-2.8,0.08l16.08,-41.28c0.91,-2.03 2.37,-3.04 4.4,-3.04zm46.58,34.8c0,4.37 -0.98,8.24 -2.96,11.6c-1.92,3.31 -4.53,5.89 -7.84,7.76c-3.25,1.87 -6.9,2.8 -10.96,2.8c-4.05,0 -7.73,-0.93 -11.04,-2.8c-3.25,-1.87 -5.86,-4.45 -7.84,-7.76c-1.92,-3.36 -2.88,-7.23 -2.88,-11.6c0,-4.37 0.96,-8.21 2.88,-11.52c1.98,-3.36 4.59,-5.97 7.84,-7.84c3.31,-1.92 6.99,-2.88 11.04,-2.88c4.06,0 7.71,0.96 10.96,2.88c3.31,1.87 5.92,4.48 7.84,7.84c1.98,3.31 2.96,7.15 2.96,11.52zm-9.6,0c0,-2.72 -0.56,-5.07 -1.68,-7.04c-1.06,-2.03 -2.53,-3.6 -4.4,-4.72c-1.81,-1.12 -3.84,-1.68 -6.08,-1.68c-2.24,0 -4.29,0.56 -6.16,1.68c-1.81,1.12 -3.28,2.69 -4.4,4.72c-1.06,1.97 -1.6,4.32 -1.6,7.04c0,2.67 0.54,5.01 1.6,7.04c1.12,1.97 2.59,3.52 4.4,4.64c1.87,1.12 3.92,1.68 6.16,1.68c2.24,0 4.27,-0.56 6.08,-1.68c1.87,-1.12 3.34,-2.67 4.4,-4.64c1.12,-2.03 1.68,-4.37 1.68,-7.04zm22.81,16.48c0,1.39 -0.48,2.56 -1.44,3.52c-0.91,0.91 -2.06,1.36 -3.44,1.36c-1.34,0 -2.46,-0.45 -3.36,-1.36c-0.91,-0.96 -1.36,-2.13 -1.36,-3.52l0,-49.44c0,-1.39 0.45,-2.53 1.36,-3.44c0.96,-0.96 2.13,-1.44 3.52,-1.44c1.38,0 2.5,0.48 3.36,1.44c0.9,0.91 1.36,2.05 1.36,3.44l0,49.44zm5.8,-37.12l18.96,0c1.28,0 2.35,0.43 3.2,1.28c0.86,0.85 1.28,1.92 1.28,3.2c0,1.23 -0.42,2.27 -1.28,3.12c-0.85,0.8 -1.92,1.2 -3.2,1.2l-18.96,0c-1.28,0 -2.34,-0.43 -3.2,-1.28c-0.85,-0.85 -1.28,-1.92 -1.28,-3.2c0,-1.23 0.43,-2.24 1.28,-3.04c0.86,-0.85 1.92,-1.28 3.2,-1.28zm8.56,-10c1.39,0 2.51,0.48 3.36,1.44c0.91,0.91 1.36,2.05 1.36,3.44l0,35.6c0,0.75 0.14,1.36 0.4,1.84c0.32,0.48 0.72,0.83 1.2,1.04c0.54,0.21 1.1,0.32 1.68,0.32c0.64,0 1.23,-0.11 1.76,-0.32c0.54,-0.27 1.15,-0.4 1.84,-0.4c0.75,0 1.42,0.35 2,1.04c0.64,0.69 0.96,1.65 0.96,2.88c0,1.49 -0.82,2.72 -2.48,3.68c-1.6,0.96 -3.33,1.44 -5.2,1.44c-1.12,0 -2.37,-0.08 -3.76,-0.24c-1.33,-0.21 -2.61,-0.67 -3.84,-1.36c-1.17,-0.75 -2.16,-1.87 -2.96,-3.36c-0.8,-1.49 -1.2,-3.55 -1.2,-6.16l0,-36c0,-1.39 0.46,-2.53 1.36,-3.44c0.96,-0.96 2.14,-1.44 3.52,-1.44zm27.14,47.12c0,1.39 -0.46,2.56 -1.36,3.52c-0.91,0.91 -2.06,1.36 -3.44,1.36c-1.39,0 -2.54,-0.45 -3.44,-1.36c-0.91,-0.96 -1.36,-2.13 -1.36,-3.52l0,-33.04c0,-1.39 0.45,-2.53 1.36,-3.44c0.9,-0.96 2.05,-1.44 3.44,-1.44c1.38,0 2.53,0.48 3.44,1.44c0.9,0.91 1.36,2.05 1.36,3.44l0,33.04zm-4.88,-43.12c-1.81,0 -3.1,-0.29 -3.84,-0.88c-0.75,-0.59 -1.12,-1.63 -1.12,-3.12l0,-1.52c0,-1.55 0.4,-2.59 1.2,-3.12c0.85,-0.59 2.13,-0.88 3.84,-0.88c1.87,0 3.17,0.29 3.92,0.88c0.75,0.59 1.12,1.63 1.12,3.12l0,1.52c0,1.55 -0.4,2.61 -1.2,3.2c-0.8,0.53 -2.11,0.8 -3.92,0.8z" fill="#131419" id="svg_3"/>
   <path d="m0.03,81.38c0.19,-1.28 0.39,-2.56 0.57,-3.84c1,-7.28 3.53,-13.83 9.35,-18.7c2.61,-2.01 5.53,-3.59 8.64,-4.68c2.86,-1.11 5.8,-2.01 8.79,-2.7c2.13,-0.5 4.31,-0.82 6.46,-1.23c3.86,-0.74 7.61,-1.99 11.15,-3.7c2.98,-1.58 5.77,-3.49 8.33,-5.69c4.39,-3.45 9.17,-6.4 14.23,-8.77c3.49,-1.67 7.11,-3.03 10.84,-4.07c3.38,-0.94 6.84,-1.54 10.33,-1.8c2.66,-0.26 5.33,-0.36 8,-0.31c4.89,0.15 9.77,0.62 14.6,1.4c9.55,1.78 18.33,6.45 25.15,13.38c1.75,1.71 3.56,3.37 5.33,5.06c0.51,0.56 1.06,1.09 1.65,1.57c0.37,0.27 0.36,0.58 0,0.93c-0.74,0.72 -1.47,1.47 -2.15,2.24c-0.41,0.46 -0.67,0.36 -1.06,0c-2.23,-2.16 -4.5,-4.28 -6.73,-6.44c-4.81,-4.65 -10.15,-8.46 -16.58,-10.6c-3.41,-1.13 -6.94,-1.91 -10.51,-2.32c-4.58,-0.57 -9.2,-0.8 -13.82,-0.7c-3.14,0.08 -6.26,0.41 -9.34,1c-6.44,1.27 -12.62,3.6 -18.3,6.89c-4.19,2.46 -8.17,5.27 -11.88,8.4c-3.06,2.37 -6.48,4.25 -10.12,5.57c-4.83,1.91 -10,2.52 -15,3.66c-5.38,1.23 -10.68,2.85 -15.13,6.34c-2.92,2.41 -5.09,5.61 -6.25,9.21c-1.13,3.36 -1.8,6.86 -2,10.4c-0.07,0.76 0.02,1.52 0.27,2.24c0.08,0.36 0.29,0.67 0.57,0.9c0.29,0.22 0.65,0.34 1.01,0.34l0.28,0c0.61,0 1.32,0.57 1.79,0.19c0.47,-0.38 0.25,-1.18 0.32,-1.8c0.3,-3.42 1.43,-6.71 3.31,-9.58c1.35,-2.03 3.11,-3.77 5.15,-5.11c2.05,-1.34 4.34,-2.25 6.75,-2.67c3.85,-0.84 7.87,-0.57 11.57,0.8c2.28,0.83 4.36,2.1 6.14,3.74c1.78,1.65 3.21,3.63 4.22,5.83c1.25,2.68 1.93,5.59 2,8.55c0,0.72 0.38,0.81 1,0.81c8,0 16,0 24,0c12.15,0 24.3,0 36.45,0c0.74,0 1,-0.13 1.07,-1c0.13,-3.74 1.27,-7.37 3.29,-10.52c2.27,-3.45 5.59,-6.06 9.48,-7.45c3.33,-1.25 6.94,-1.59 10.45,-1c3.08,0.41 6,1.6 8.5,3.45c2.49,1.86 4.48,4.31 5.76,7.14c1.07,2.19 1.72,4.57 1.9,7c0.01,0.16 0.03,0.31 0.08,0.46c0.09,0.21 -0.05,0.55 0.34,0.58c0.39,0.03 0.46,-0.21 0.58,-0.42c0.59,-0.98 0.99,-2.07 1.17,-3.21c0.29,-2.53 0.41,-5.07 0.38,-7.61c0,-6.2 0.07,-12.4 0,-18.6c-0.13,-10.89 -0.31,-21.77 -0.56,-32.66c0.03,-1.27 -0.2,-2.54 -0.69,-3.72c-0.48,-1.18 -1.21,-2.24 -2.13,-3.12c-1.39,-1.2 -3.17,-1.84 -5,-1.82c-1.67,0 -3.34,0 -5,0c-0.71,0 -0.94,-0.21 -0.9,-0.91c0.05,-0.94 0,-1.89 0,-2.84c0,-0.41 0.07,-0.66 0.55,-0.64c2.91,0.15 5.84,-0.33 8.73,0.41c1.66,0.41 3.21,1.2 4.51,2.32c1.31,1.11 2.34,2.5 3.01,4.08c1.05,2.32 1.57,4.84 1.52,7.38c0,13.09 0.6,26.18 0.39,39.27c0.01,0.19 0.02,0.37 0.05,0.56c0,4.13 -0.02,8.26 -0.05,12.37c0.08,2.56 -0.17,5.13 -0.73,7.63c-0.42,1.97 -1.48,3.76 -3,5.08c-0.56,0.53 -1.25,0.91 -2,1.09c-0.76,0.18 -1.54,0.16 -2.28,-0.06c-0.74,-0.22 -1.42,-0.63 -1.95,-1.19c-0.53,-0.56 -0.91,-1.25 -1.09,-2c-0.39,-1.4 -0.32,-2.85 -0.68,-4.25c-1.07,-4.12 -3.22,-7.48 -7,-9.55c-5.33,-2.92 -10.74,-2.7 -16,0.29c-1.81,1.06 -3.38,2.5 -4.57,4.23c-1.19,1.73 -1.99,3.7 -2.34,5.77c-0.49,2.25 -0.54,4.56 -0.16,6.83c0.15,0.88 -0.1,1.14 -1,1.14c-20.05,0 -40.1,0 -60.16,0c-3.12,0 -6.24,0 -9.35,0c-0.62,0 -0.82,-0.14 -0.77,-0.79c0.13,-2.52 -0.08,-5.04 -0.61,-7.5c-0.53,-3.13 -2.09,-5.99 -4.43,-8.14c-2.34,-2.15 -5.33,-3.46 -8.49,-3.73c-4.67,-0.46 -8.93,0.56 -12.44,3.9c-2.78,2.74 -4.41,6.44 -4.56,10.34c-0.15,1.84 0,3.71 0,5.57c0,0.56 0,0.73 -0.73,0.6c-2.06,-0.41 -4.15,-0.71 -6.23,-1c-1.17,-0.07 -2.29,-0.47 -3.25,-1.14c-0.95,-0.68 -1.7,-1.61 -2.16,-2.68c-0.43,-1 -0.49,-2 -0.86,-3l0.03,-1.68z" fill="#131419" id="svg_4"/>
   <path d="m27.96,100.08c-0.68,-0.45 -1.49,-0.25 -2.22,-0.34c-1.63,-0.23 -3.18,-0.83 -4.55,-1.74c-2.57,-1.49 -4.6,-3.75 -5.8,-6.47c-1.2,-2.72 -1.5,-5.75 -0.86,-8.65c0.42,-2.52 1.55,-4.86 3.27,-6.75c1.71,-1.89 3.93,-3.25 6.4,-3.91c3.29,-1.05 6.85,-0.83 9.99,0.6c3.14,1.43 5.64,3.97 7.01,7.14c1.25,2.93 1.5,6.19 0.7,9.27c-0.8,3.09 -2.59,5.82 -5.11,7.77c-2.24,1.76 -4.98,2.76 -7.82,2.87c-0.13,0 -0.24,0 -0.26,0.19l-0.75,0.02zm0.37,-4.83c1.92,-0.01 3.79,-0.59 5.37,-1.67c1.59,-1.08 2.81,-2.61 3.52,-4.39c0.71,-1.78 0.87,-3.74 0.46,-5.61c-0.41,-1.87 -1.38,-3.58 -2.77,-4.9c-1.39,-1.32 -3.14,-2.2 -5.03,-2.52c-1.89,-0.31 -3.83,-0.06 -5.58,0.74c-1.74,0.79 -3.21,2.09 -4.21,3.73c-1,1.64 -1.49,3.53 -1.4,5.45c0.11,2.48 1.17,4.82 2.97,6.53c1.8,1.71 4.19,2.66 6.67,2.64z" fill="#131419" id="svg_5"/>
   <path d="m116.74,0c0.29,0.21 0.51,0.5 0.65,0.83c0.13,0.33 0.18,0.7 0.13,1.05c0,6.54 0,13.08 0,19.62c0,1.13 -0.43,1.71 -1.27,1.69c-0.84,-0.02 -1.35,-0.54 -1.35,-1.66c0,-6.6 0,-13.21 0,-19.81c0.01,-0.64 0.26,-1.25 0.7,-1.72l1.14,0z" fill="#131419" id="svg_6"/>
   <path d="m110.13,59.52c0.28,11.88 -10.1,22.59 -23.22,21.86c-4.3,-0.24 -8.43,-1.73 -11.89,-4.3c-3.45,-2.56 -6.08,-6.08 -7.56,-10.13c-1.47,-4.04 -1.73,-8.42 -0.74,-12.61c1,-4.19 3.2,-7.99 6.33,-10.94c3.13,-2.95 7.06,-4.92 11.3,-5.66c4.24,-0.74 8.61,-0.22 12.55,1.5c3.95,1.72 7.31,4.55 9.66,8.16c2.35,3.6 3.59,7.82 3.57,12.12zm-13.6,-0.23c-1.6,0 -3.2,0 -4.81,0c-0.64,0 -0.73,-0.12 -0.49,-0.74c2.07,-5.33 4.11,-10.65 6.12,-15.94c0.2,-0.54 0.8,-1.32 0.41,-1.61c-0.39,-0.29 -0.9,0.56 -1.4,0.82c-0.05,0.04 -0.1,0.08 -0.14,0.12l-10.78,8.67c-3.38,2.72 -6.75,5.45 -10.11,8.18c-0.17,0.13 -0.45,0.22 -0.33,0.49c0.12,0.27 0.44,0.19 0.67,0.19c3,0 6,0 9,0c0.71,0 0.87,0.18 0.59,0.88c-2.15,5.45 -4.27,10.92 -6.35,16.4c-0.13,0.35 -0.59,0.84 -0.25,1.09c0.34,0.25 0.75,-0.29 1.07,-0.53l21.89,-17.24c0.18,-0.15 0.54,-0.24 0.4,-0.55c-0.14,-0.31 -0.42,-0.23 -0.67,-0.23l-4.82,0z" fill="white" id="svg_7"/>
   <path d="m119.03,11.45c0,-3.2 0,-6.4 0,-9.6c0,-0.48 0.11,-0.75 0.6,-0.72c2.25,0.12 4.52,-0.18 6.77,0.32c1.54,0.27 2.99,0.92 4.21,1.9c1.22,0.97 2.18,2.24 2.79,3.68c0.22,0.52 0.45,0.93 1.08,1c0.63,0.07 0.81,0.47 0.8,1.08c0,1.66 0,3.33 0,5c0,0.65 -0.27,1.12 -1,1.11c-0.54,0 -0.69,0.35 -0.85,0.72c-1.49,3.65 -4.35,5.39 -8.12,5.94c-1.06,0.09 -2.13,0.13 -3.19,0.1c-0.23,0 -0.6,0.17 -0.67,-0.29c0,-0.19 -0.15,-0.18 -0.18,0c-0.07,0.46 -0.42,0.3 -0.66,0.31c-1.66,0.07 -1.64,0.06 -1.62,-1.62c0,-3 0,-6 0,-8.95l0.04,0.02zm3.87,0.36l0,-5.65c0,-0.66 0,-1.32 0,-2c0.01,-0.09 0,-0.18 -0.03,-0.26c-0.03,-0.08 -0.07,-0.16 -0.14,-0.23c-0.06,-0.06 -0.13,-0.11 -0.21,-0.14c-0.08,-0.04 -0.17,-0.05 -0.26,-0.05c-0.17,-0.01 -0.34,0.05 -0.48,0.16c-0.13,0.11 -0.22,0.27 -0.25,0.44c-0.06,0.24 -0.1,0.49 -0.1,0.74c0,4.75 0,9.49 0,14.23c0,0.6 0.21,1 0.83,1c0.62,0 0.7,-0.47 0.69,-1c-0.11,-2.4 -0.1,-4.82 -0.1,-7.24l0.05,0z" fill="#131419" id="svg_8"/>
   <path d="m108.24,16.9c1.51,0 3,0 4.53,0c0.59,0 0.76,0.19 0.75,0.76c0,2.22 0.29,1.85 -1.8,1.86c-2.36,0 -4.72,0 -7.08,0c-0.47,0.03 -0.94,0.01 -1.41,-0.07c-0.32,-0.04 -0.61,-0.2 -0.82,-0.44c-0.2,-0.25 -0.3,-0.57 -0.28,-0.89c0,-0.17 0.03,-0.33 0.1,-0.49c0.06,-0.15 0.16,-0.29 0.28,-0.4c0.12,-0.12 0.26,-0.21 0.42,-0.27c0.16,-0.05 0.32,-0.08 0.49,-0.07c1.61,-0.01 3.21,0.01 4.82,0.01z" fill="#131419" id="svg_9"/>
   <path d="m108.17,6.66c-1.54,0 -3.08,0 -4.62,0c-0.17,0.01 -0.35,-0.01 -0.51,-0.07c-0.16,-0.05 -0.31,-0.14 -0.44,-0.26c-0.13,-0.12 -0.23,-0.27 -0.29,-0.42c-0.07,-0.16 -0.1,-0.34 -0.1,-0.51c0,-0.17 0.04,-0.33 0.1,-0.48c0.07,-0.15 0.17,-0.29 0.29,-0.4c0.13,-0.11 0.27,-0.19 0.43,-0.24c0.16,-0.05 0.33,-0.07 0.49,-0.05l9.24,0c0.52,0 0.85,0.15 0.75,0.77c-0.04,0.28 -0.04,0.56 0,0.84c0.06,0.7 -0.16,0.92 -0.92,0.88c-1.47,-0.09 -2.95,0 -4.43,0l0.01,-0.06z" fill="#131419" id="svg_10"/>
   <path d="m130.46,99.9c-8.54,0.34 -14.73,-8.13 -13.92,-15.64c0.38,-3.64 2.17,-6.99 4.98,-9.34c2.81,-2.35 6.42,-3.51 10.08,-3.25c3.65,0.27 7.06,1.95 9.49,4.69c2.44,2.73 3.71,6.31 3.56,9.97c-0.38,7.67 -6.74,13.96 -14.19,13.57zm0.18,-23.83c-1.26,-0.01 -2.5,0.22 -3.67,0.69c-1.16,0.47 -2.22,1.16 -3.12,2.04c-0.9,0.88 -1.61,1.92 -2.1,3.08c-0.5,1.15 -0.76,2.39 -0.77,3.65c-0.01,1.26 0.22,2.5 0.69,3.67c0.47,1.16 1.16,2.22 2.04,3.12c0.88,0.9 1.92,1.61 3.08,2.1c1.15,0.5 2.4,0.76 3.65,0.77c1.27,0.04 2.54,-0.18 3.72,-0.64c1.19,-0.47 2.27,-1.16 3.18,-2.05c0.91,-0.89 1.63,-1.96 2.12,-3.13c0.49,-1.18 0.74,-2.44 0.73,-3.71c0,-2.54 -1.01,-4.97 -2.8,-6.76c-1.79,-1.8 -4.21,-2.82 -6.75,-2.83l0,0z" fill="#131419" id="svg_11"/>
  </g>
  <text fill="#000000" font-family="Serif" font-size="24" id="svg_12" stroke="#000000" stroke-width="0" text-anchor="middle" transform="matrix(3.99885 0 0 2.26729 -561.206 -18.5931)" x="189.5" xml:space="preserve" y="38.9"/>
  <rect fill="#ffffff" height="74" id="svg_13" stroke="#000000" stroke-width="0" width="48" x="172.5" y="16.9"/>
  <rect fill="#ffffff" height="6" id="svg_14" stroke="#000000" stroke-width="0" width="12" x="213.5" y="19.9"/>
  <rect fill="#ffffff" height="12" id="svg_15" stroke="#000000" stroke-width="0" width="28" x="210.5" y="21.9"/>
  <text fill="#000000" font-family="Serif" font-size="24" id="svg_16" stroke="#000000" stroke-width="0" text-anchor="middle" transform="matrix(2.19985 0 0 2.10782 -217.381 -24.1023)" x="189.5" xml:space="preserve" y="42.9"/>
  <rect fill="#8bc63f" height="104" id="svg_18" stroke="#000000" stroke-width="0" transform="matrix(1 0 0 1 0 0)" width="169" x="156.5" y="-2.1"/>
  <text fill="#000000" font-family="Sans-serif" font-size="7" font-style="normal" font-weight="normal" id="svg_20" letter-spacing="0" opacity="0.8" stroke="#000000" stroke-width="0.1" text-anchor="middle" transform="matrix(10.7691 0 0 10.2615 -1695.17 -150.976)" x="179.73" xml:space="preserve" y="22.76">Bolti</text>
 </g>
</svg>